<svg width="25" height="25" viewBox="0 0 25 25" fill="none" xmlns="http://www.w3.org/2000/svg">
<g clip-path="url(#clip0_1_245)">
<path fill-rule="evenodd" clip-rule="evenodd" d="M22.3587 20.9694L17.6647 16.2762C20.491 12.883 20.1486 7.86693 16.8873 4.88935C13.6259 1.91176 8.59947 2.026 5.4768 5.14867C2.35412 8.27134 2.23989 13.2978 5.21747 16.5591C8.19506 19.8204 13.2112 20.1629 16.6044 17.3366L21.2975 22.0306C21.5906 22.3237 22.0657 22.3237 22.3587 22.0306C22.6518 21.7376 22.6518 21.2624 22.3587 20.9694ZM4.57812 11C4.57812 7.27208 7.6002 4.25 11.3281 4.25C15.056 4.25 18.0781 7.27208 18.0781 11C18.0781 14.7279 15.056 17.75 11.3281 17.75C7.60192 17.7459 4.58226 14.7262 4.57812 11Z" fill="#737373"/>
</g>
<defs>
<clipPath id="clip0_1_245">
<rect width="24" height="24" fill="white" transform="translate(0.828125 0.5)"/>
</clipPath>
</defs>
</svg>
